<svg id="visual" viewBox="0 0 1980 900" width="1980" height="900" xmlns="http://www.w3.org/2000/svg" xmlns:xlink="http://www.w3.org/1999/xlink" version="1.1"><g stroke-width="1" stroke-linejoin="bevel"><path d="M1006 496.5L1080.8 495L1044 405Z" fill="#464a4d" stroke="#464a4d"></path><path d="M1044 405L998 383.5L1006 496.5Z" fill="#33373b" stroke="#33373b"></path><path d="M1006 496.5L1114.8 539.5L1080.8 495Z" fill="#e0e1e3" stroke="#e0e1e3"></path><path d="M1232.5 464L1050.8 344.5L1044 405Z" fill="#c8cacc" stroke="#c8cacc"></path><path d="M1232.5 464L1044 405L1080.8 495Z" fill="#464a4d" stroke="#464a4d"></path><path d="M1044 405L1050.8 344.5L998 383.5Z" fill="#6f7275" stroke="#6f7275"></path><path d="M824.3 390L921.3 569.5L1006 496.5Z" fill="#33373b" stroke="#33373b"></path><path d="M1006 496.5L921.3 569.5L1114.8 539.5Z" fill="#464a4d" stroke="#464a4d"></path><path d="M1188.5 733.5L1185.5 543.5L1114.8 539.5Z" fill="#84878a" stroke="#84878a"></path><path d="M1114.8 539.5L1185.5 543.5L1080.8 495Z" fill="#5a5d61" stroke="#5a5d61"></path><path d="M1185.5 543.5L1232.5 464L1080.8 495Z" fill="#5a5d61" stroke="#5a5d61"></path><path d="M1050.8 344.5L980 270L998 383.5Z" fill="#6f7275" stroke="#6f7275"></path><path d="M998 383.5L824.3 390L1006 496.5Z" fill="#f8f9fa" stroke="#f8f9fa"></path><path d="M1171.8 238L980 270L1050.8 344.5Z" fill="#b1b3b5" stroke="#b1b3b5"></path><path d="M829.3 318.5L824.3 390L998 383.5Z" fill="#e0e1e3" stroke="#e0e1e3"></path><path d="M1232.5 464L1230.5 304.5L1050.8 344.5Z" fill="#84878a" stroke="#84878a"></path><path d="M938 73.5L930.3 234L980 270Z" fill="#6f7275" stroke="#6f7275"></path><path d="M980 270L829.3 318.5L998 383.5Z" fill="#464a4d" stroke="#464a4d"></path><path d="M930.3 234L829.3 318.5L980 270Z" fill="#33373b" stroke="#33373b"></path><path d="M1230.5 304.5L1171.8 238L1050.8 344.5Z" fill="#c8cacc" stroke="#c8cacc"></path><path d="M900.3 712L993 727.5L921.3 569.5Z" fill="#212529" stroke="#212529"></path><path d="M921.3 569.5L993 727.5L1114.8 539.5Z" fill="#464a4d" stroke="#464a4d"></path><path d="M993 727.5L1090.8 732L1114.8 539.5Z" fill="#5a5d61" stroke="#5a5d61"></path><path d="M1185.5 543.5L1295.3 591.5L1232.5 464Z" fill="#c8cacc" stroke="#c8cacc"></path><path d="M1275.5 683L1295.3 591.5L1185.5 543.5Z" fill="#212529" stroke="#212529"></path><path d="M1232.5 464L1379.3 442L1230.5 304.5Z" fill="#9a9d9f" stroke="#9a9d9f"></path><path d="M774.5 682L900.3 712L921.3 569.5Z" fill="#5a5d61" stroke="#5a5d61"></path><path d="M900.3 712L961 739L993 727.5Z" fill="#b1b3b5" stroke="#b1b3b5"></path><path d="M1060.8 900L1135.8 850.5L1090.8 732Z" fill="#c8cacc" stroke="#c8cacc"></path><path d="M1230.5 304.5L1235.5 232L1171.8 238Z" fill="#9a9d9f" stroke="#9a9d9f"></path><path d="M1171.8 238L1136.8 80.5L980 270Z" fill="#84878a" stroke="#84878a"></path><path d="M1299.3 230L1235.5 232L1230.5 304.5Z" fill="#b1b3b5" stroke="#b1b3b5"></path><path d="M829.3 318.5L744.5 397L824.3 390Z" fill="#464a4d" stroke="#464a4d"></path><path d="M824.3 390L744.5 397L921.3 569.5Z" fill="#b1b3b5" stroke="#b1b3b5"></path><path d="M1135.8 850.5L1188.5 733.5L1090.8 732Z" fill="#b1b3b5" stroke="#b1b3b5"></path><path d="M1090.8 732L1188.5 733.5L1114.8 539.5Z" fill="#464a4d" stroke="#464a4d"></path><path d="M1188.5 733.5L1275.5 683L1185.5 543.5Z" fill="#5a5d61" stroke="#5a5d61"></path><path d="M829.3 318.5L719.5 365.5L744.5 397Z" fill="#464a4d" stroke="#464a4d"></path><path d="M702.5 622.5L774.5 682L921.3 569.5Z" fill="#464a4d" stroke="#464a4d"></path><path d="M790.5 207L719.5 365.5L829.3 318.5Z" fill="#84878a" stroke="#84878a"></path><path d="M1470 513.5L1379.3 442L1295.3 591.5Z" fill="#e0e1e3" stroke="#e0e1e3"></path><path d="M1295.3 591.5L1379.3 442L1232.5 464Z" fill="#464a4d" stroke="#464a4d"></path><path d="M1401.3 383.5L1299.3 230L1230.5 304.5Z" fill="#33373b" stroke="#33373b"></path><path d="M1235.5 232L1197.5 140.5L1171.8 238Z" fill="#33373b" stroke="#33373b"></path><path d="M702.5 622.5L921.3 569.5L744.5 397Z" fill="#c8cacc" stroke="#c8cacc"></path><path d="M900.3 712L925.3 826.5L961 739Z" fill="#f8f9fa" stroke="#f8f9fa"></path><path d="M1312.3 130.5L1197.5 140.5L1235.5 232Z" fill="#6f7275" stroke="#6f7275"></path><path d="M898.3 74.5L790.5 207L930.3 234Z" fill="#6f7275" stroke="#6f7275"></path><path d="M930.3 234L790.5 207L829.3 318.5Z" fill="#e0e1e3" stroke="#e0e1e3"></path><path d="M1379.3 442L1401.3 383.5L1230.5 304.5Z" fill="#33373b" stroke="#33373b"></path><path d="M1188.5 733.5L1328.3 701L1275.5 683Z" fill="#9a9d9f" stroke="#9a9d9f"></path><path d="M1275.5 683L1328.3 701L1295.3 591.5Z" fill="#6f7275" stroke="#6f7275"></path><path d="M1379.3 442L1458 368.5L1401.3 383.5Z" fill="#33373b" stroke="#33373b"></path><path d="M640.8 505.5L702.5 622.5L744.5 397Z" fill="#5a5d61" stroke="#5a5d61"></path><path d="M733.5 817.5L925.3 826.5L900.3 712Z" fill="#6f7275" stroke="#6f7275"></path><path d="M961 739L925.3 826.5L993 727.5Z" fill="#84878a" stroke="#84878a"></path><path d="M1188.5 733.5L1370.3 842.5L1328.3 701Z" fill="#9a9d9f" stroke="#9a9d9f"></path><path d="M948 900L925.3 826.5L917.3 900Z" fill="#b1b3b5" stroke="#b1b3b5"></path><path d="M1151.8 0L1136.8 80.5L1235.5 0Z" fill="#5a5d61" stroke="#5a5d61"></path><path d="M1197.5 140.5L1136.8 80.5L1171.8 238Z" fill="#33373b" stroke="#33373b"></path><path d="M790.5 207L662.8 367.5L719.5 365.5Z" fill="#e0e1e3" stroke="#e0e1e3"></path><path d="M719.5 365.5L662.8 367.5L744.5 397Z" fill="#5a5d61" stroke="#5a5d61"></path><path d="M1136.8 80.5L938 73.5L980 270Z" fill="#84878a" stroke="#84878a"></path><path d="M1060.8 900L1090.8 732L993 727.5Z" fill="#212529" stroke="#212529"></path><path d="M662.8 367.5L640.8 505.5L744.5 397Z" fill="#c8cacc" stroke="#c8cacc"></path><path d="M938 73.5L898.3 74.5L930.3 234Z" fill="#5a5d61" stroke="#5a5d61"></path><path d="M1454 220L1312.3 130.5L1299.3 230Z" fill="#9a9d9f" stroke="#9a9d9f"></path><path d="M1299.3 230L1312.3 130.5L1235.5 232Z" fill="#6f7275" stroke="#6f7275"></path><path d="M1470 513.5L1458 368.5L1379.3 442Z" fill="#84878a" stroke="#84878a"></path><path d="M1401.3 383.5L1454 220L1299.3 230Z" fill="#464a4d" stroke="#464a4d"></path><path d="M535 276.5L618.8 390L662.8 367.5Z" fill="#e0e1e3" stroke="#e0e1e3"></path><path d="M662.8 367.5L618.8 390L640.8 505.5Z" fill="#6f7275" stroke="#6f7275"></path><path d="M622.8 161L662.8 367.5L790.5 207Z" fill="#33373b" stroke="#33373b"></path><path d="M1469 686L1470 513.5L1295.3 591.5Z" fill="#c8cacc" stroke="#c8cacc"></path><path d="M925.3 826.5L1060.8 900L993 727.5Z" fill="#b1b3b5" stroke="#b1b3b5"></path><path d="M917.3 900L925.3 826.5L733.5 817.5Z" fill="#b1b3b5" stroke="#b1b3b5"></path><path d="M925.3 826.5L948 900L1060.8 900Z" fill="#c8cacc" stroke="#c8cacc"></path><path d="M733.5 817.5L900.3 712L774.5 682Z" fill="#33373b" stroke="#33373b"></path><path d="M1060.8 900L1178.5 900L1135.8 850.5Z" fill="#f8f9fa" stroke="#f8f9fa"></path><path d="M1135.8 850.5L1178.5 900L1188.5 733.5Z" fill="#464a4d" stroke="#464a4d"></path><path d="M1328.3 701L1469 686L1295.3 591.5Z" fill="#5a5d61" stroke="#5a5d61"></path><path d="M938 73.5L954 0L898.3 74.5Z" fill="#33373b" stroke="#33373b"></path><path d="M898.3 74.5L732.5 65.5L790.5 207Z" fill="#b1b3b5" stroke="#b1b3b5"></path><path d="M1136.8 80.5L954 0L938 73.5Z" fill="#f8f9fa" stroke="#f8f9fa"></path><path d="M1151.8 0L954 0L1136.8 80.5Z" fill="#e0e1e3" stroke="#e0e1e3"></path><path d="M1235.5 0L1136.8 80.5L1197.5 140.5Z" fill="#c8cacc" stroke="#c8cacc"></path><path d="M633.8 728L774.5 682L702.5 622.5Z" fill="#464a4d" stroke="#464a4d"></path><path d="M633.8 728L733.5 817.5L774.5 682Z" fill="#464a4d" stroke="#464a4d"></path><path d="M1544.8 286L1454 220L1458 368.5Z" fill="#e0e1e3" stroke="#e0e1e3"></path><path d="M1458 368.5L1454 220L1401.3 383.5Z" fill="#e0e1e3" stroke="#e0e1e3"></path><path d="M1312.3 130.5L1235.5 0L1197.5 140.5Z" fill="#e0e1e3" stroke="#e0e1e3"></path><path d="M1463 803.5L1469 686L1328.3 701Z" fill="#464a4d" stroke="#464a4d"></path><path d="M954 0L871.3 0L898.3 74.5Z" fill="#9a9d9f" stroke="#9a9d9f"></path><path d="M529 640L633.8 728L702.5 622.5Z" fill="#b1b3b5" stroke="#b1b3b5"></path><path d="M529 640L702.5 622.5L640.8 505.5Z" fill="#b1b3b5" stroke="#b1b3b5"></path><path d="M1617.8 629L1536 496L1470 513.5Z" fill="#c8cacc" stroke="#c8cacc"></path><path d="M1470 513.5L1536 496L1458 368.5Z" fill="#5a5d61" stroke="#5a5d61"></path><path d="M1409.3 0L1235.5 0L1312.3 130.5Z" fill="#5a5d61" stroke="#5a5d61"></path><path d="M774.5 0L732.5 65.5L898.3 74.5Z" fill="#f8f9fa" stroke="#f8f9fa"></path><path d="M535 276.5L542 450L618.8 390Z" fill="#e0e1e3" stroke="#e0e1e3"></path><path d="M618.8 390L542 450L640.8 505.5Z" fill="#33373b" stroke="#33373b"></path><path d="M1178.5 900L1370.3 842.5L1188.5 733.5Z" fill="#84878a" stroke="#84878a"></path><path d="M732.5 65.5L622.8 161L790.5 207Z" fill="#84878a" stroke="#84878a"></path><path d="M1536 496L1566.8 399.5L1458 368.5Z" fill="#212529" stroke="#212529"></path><path d="M871.3 0L774.5 0L898.3 74.5Z" fill="#464a4d" stroke="#464a4d"></path><path d="M732.5 65.5L604.8 92.5L622.8 161Z" fill="#212529" stroke="#212529"></path><path d="M1566.8 399.5L1544.8 286L1458 368.5Z" fill="#f8f9fa" stroke="#f8f9fa"></path><path d="M1497 50.5L1409.3 0L1312.3 130.5Z" fill="#6f7275" stroke="#6f7275"></path><path d="M622.8 161L535 276.5L662.8 367.5Z" fill="#84878a" stroke="#84878a"></path><path d="M1370.3 842.5L1463 803.5L1328.3 701Z" fill="#33373b" stroke="#33373b"></path><path d="M1469 686L1617.8 629L1470 513.5Z" fill="#5a5d61" stroke="#5a5d61"></path><path d="M1536 496L1652.8 515L1566.8 399.5Z" fill="#33373b" stroke="#33373b"></path><path d="M1178.5 900L1360.3 900L1370.3 842.5Z" fill="#6f7275" stroke="#6f7275"></path><path d="M1370.3 842.5L1435 900L1463 803.5Z" fill="#6f7275" stroke="#6f7275"></path><path d="M488 530.5L640.8 505.5L542 450Z" fill="#f8f9fa" stroke="#f8f9fa"></path><path d="M488 530.5L529 640L640.8 505.5Z" fill="#c8cacc" stroke="#c8cacc"></path><path d="M633.8 728L580.8 748.5L733.5 817.5Z" fill="#f8f9fa" stroke="#f8f9fa"></path><path d="M529 640L580.8 748.5L633.8 728Z" fill="#9a9d9f" stroke="#9a9d9f"></path><path d="M422.3 469L488 530.5L542 450Z" fill="#464a4d" stroke="#464a4d"></path><path d="M580.8 900L696.5 900L733.5 817.5Z" fill="#b1b3b5" stroke="#b1b3b5"></path><path d="M733.5 817.5L696.5 900L917.3 900Z" fill="#f8f9fa" stroke="#f8f9fa"></path><path d="M649.8 0L604.8 92.5L732.5 65.5Z" fill="#f8f9fa" stroke="#f8f9fa"></path><path d="M622.8 161L523 213L535 276.5Z" fill="#212529" stroke="#212529"></path><path d="M559 116.5L523 213L622.8 161Z" fill="#212529" stroke="#212529"></path><path d="M535 276.5L422.3 469L542 450Z" fill="#e0e1e3" stroke="#e0e1e3"></path><path d="M1497 50.5L1312.3 130.5L1454 220Z" fill="#b1b3b5" stroke="#b1b3b5"></path><path d="M1360.3 900L1435 900L1370.3 842.5Z" fill="#e0e1e3" stroke="#e0e1e3"></path><path d="M500 0L559 116.5L604.8 92.5Z" fill="#6f7275" stroke="#6f7275"></path><path d="M604.8 92.5L559 116.5L622.8 161Z" fill="#84878a" stroke="#84878a"></path><path d="M1586.8 850.5L1469 686L1463 803.5Z" fill="#9a9d9f" stroke="#9a9d9f"></path><path d="M1586.8 850.5L1617.8 629L1469 686Z" fill="#e0e1e3" stroke="#e0e1e3"></path><path d="M1707.5 309.5L1580.8 176.5L1544.8 286Z" fill="#b1b3b5" stroke="#b1b3b5"></path><path d="M774.5 0L649.8 0L732.5 65.5Z" fill="#9a9d9f" stroke="#9a9d9f"></path><path d="M1707.5 309.5L1544.8 286L1566.8 399.5Z" fill="#84878a" stroke="#84878a"></path><path d="M1544.8 286L1580.8 176.5L1454 220Z" fill="#5a5d61" stroke="#5a5d61"></path><path d="M1580.8 176.5L1497 50.5L1454 220Z" fill="#6f7275" stroke="#6f7275"></path><path d="M1617.8 629L1652.8 515L1536 496Z" fill="#6f7275" stroke="#6f7275"></path><path d="M323.3 331.5L422.3 469L535 276.5Z" fill="#212529" stroke="#212529"></path><path d="M488 530.5L419.3 664L529 640Z" fill="#5a5d61" stroke="#5a5d61"></path><path d="M515 838.5L580.8 900L580.8 748.5Z" fill="#464a4d" stroke="#464a4d"></path><path d="M341.3 520.5L422.3 469L302.5 465Z" fill="#464a4d" stroke="#464a4d"></path><path d="M1617.8 629L1671.8 557.5L1652.8 515Z" fill="#212529" stroke="#212529"></path><path d="M1747.5 461L1707.5 309.5L1566.8 399.5Z" fill="#6f7275" stroke="#6f7275"></path><path d="M1701.5 661L1671.8 557.5L1617.8 629Z" fill="#33373b" stroke="#33373b"></path><path d="M515 838.5L580.8 748.5L419.3 664Z" fill="#e0e1e3" stroke="#e0e1e3"></path><path d="M580.8 748.5L580.8 900L733.5 817.5Z" fill="#f8f9fa" stroke="#f8f9fa"></path><path d="M1647.8 0L1502 0L1497 50.5Z" fill="#9a9d9f" stroke="#9a9d9f"></path><path d="M1497 50.5L1502 0L1409.3 0Z" fill="#212529" stroke="#212529"></path><path d="M419.3 664L580.8 748.5L529 640Z" fill="#212529" stroke="#212529"></path><path d="M515 838.5L559 900L580.8 900Z" fill="#9a9d9f" stroke="#9a9d9f"></path><path d="M341.3 520.5L419.3 664L488 530.5Z" fill="#84878a" stroke="#84878a"></path><path d="M1557.8 900L1586.8 850.5L1463 803.5Z" fill="#9a9d9f" stroke="#9a9d9f"></path><path d="M1435 900L1557.8 900L1463 803.5Z" fill="#b1b3b5" stroke="#b1b3b5"></path><path d="M1747.5 461L1566.8 399.5L1652.8 515Z" fill="#c8cacc" stroke="#c8cacc"></path><path d="M1580.8 176.5L1647.8 0L1497 50.5Z" fill="#9a9d9f" stroke="#9a9d9f"></path><path d="M1723.5 761.5L1617.8 629L1586.8 850.5Z" fill="#464a4d" stroke="#464a4d"></path><path d="M1723.5 761.5L1701.5 661L1617.8 629Z" fill="#212529" stroke="#212529"></path><path d="M1761.5 509.5L1747.5 461L1652.8 515Z" fill="#6f7275" stroke="#6f7275"></path><path d="M323.3 331.5L535 276.5L336.3 190Z" fill="#f8f9fa" stroke="#f8f9fa"></path><path d="M422.3 469L341.3 520.5L488 530.5Z" fill="#b1b3b5" stroke="#b1b3b5"></path><path d="M1761.5 509.5L1652.8 515L1671.8 557.5Z" fill="#b1b3b5" stroke="#b1b3b5"></path><path d="M649.8 0L500 0L604.8 92.5Z" fill="#e0e1e3" stroke="#e0e1e3"></path><path d="M361.3 81.5L336.3 190L523 213Z" fill="#9a9d9f" stroke="#9a9d9f"></path><path d="M1813.3 584.5L1761.5 509.5L1671.8 557.5Z" fill="#6f7275" stroke="#6f7275"></path><path d="M1792.5 192L1580.8 176.5L1707.5 309.5Z" fill="#5a5d61" stroke="#5a5d61"></path><path d="M336.3 190L535 276.5L523 213Z" fill="#f8f9fa" stroke="#f8f9fa"></path><path d="M323.3 331.5L302.5 465L422.3 469Z" fill="#e0e1e3" stroke="#e0e1e3"></path><path d="M271.5 624.5L347.3 798.5L419.3 664Z" fill="#f8f9fa" stroke="#f8f9fa"></path><path d="M419.3 664L347.3 798.5L515 838.5Z" fill="#b1b3b5" stroke="#b1b3b5"></path><path d="M1743.5 900L1723.5 761.5L1586.8 850.5Z" fill="#5a5d61" stroke="#5a5d61"></path><path d="M1701.5 661L1813.3 584.5L1671.8 557.5Z" fill="#464a4d" stroke="#464a4d"></path><path d="M361.3 81.5L523 213L559 116.5Z" fill="#84878a" stroke="#84878a"></path><path d="M323.3 331.5L249.5 384.5L302.5 465Z" fill="#6f7275" stroke="#6f7275"></path><path d="M1792.5 192L1707.5 309.5L1863.3 308.5Z" fill="#84878a" stroke="#84878a"></path><path d="M1748.5 84.5L1647.8 0L1580.8 176.5Z" fill="#f8f9fa" stroke="#f8f9fa"></path><path d="M271.5 624.5L419.3 664L341.3 520.5Z" fill="#464a4d" stroke="#464a4d"></path><path d="M515 838.5L316.3 900L559 900Z" fill="#464a4d" stroke="#464a4d"></path><path d="M500 0L361.3 81.5L559 116.5Z" fill="#f8f9fa" stroke="#f8f9fa"></path><path d="M1849.3 740L1813.3 584.5L1701.5 661Z" fill="#212529" stroke="#212529"></path><path d="M1761.5 509.5L1859.3 492L1747.5 461Z" fill="#33373b" stroke="#33373b"></path><path d="M159.8 503L271.5 624.5L302.5 465Z" fill="#e0e1e3" stroke="#e0e1e3"></path><path d="M302.5 465L271.5 624.5L341.3 520.5Z" fill="#464a4d" stroke="#464a4d"></path><path d="M1863.3 308.5L1707.5 309.5L1747.5 461Z" fill="#6f7275" stroke="#6f7275"></path><path d="M191.5 234L323.3 331.5L336.3 190Z" fill="#464a4d" stroke="#464a4d"></path><path d="M191.5 234L249.5 384.5L323.3 331.5Z" fill="#b1b3b5" stroke="#b1b3b5"></path><path d="M1792.5 192L1748.5 84.5L1580.8 176.5Z" fill="#84878a" stroke="#84878a"></path><path d="M1813.3 584.5L1859.3 492L1761.5 509.5Z" fill="#b1b3b5" stroke="#b1b3b5"></path><path d="M1557.8 900L1743.5 900L1586.8 850.5Z" fill="#9a9d9f" stroke="#9a9d9f"></path><path d="M1723.5 761.5L1849.3 740L1701.5 661Z" fill="#5a5d61" stroke="#5a5d61"></path><path d="M1980 582.5L1980 510L1859.3 492Z" fill="#f8f9fa" stroke="#f8f9fa"></path><path d="M1859.3 492L1863.3 308.5L1747.5 461Z" fill="#6f7275" stroke="#6f7275"></path><path d="M1794.5 0L1790.3 0L1748.5 84.5Z" fill="#b1b3b5" stroke="#b1b3b5"></path><path d="M361.3 81.5L261.5 153.5L336.3 190Z" fill="#c8cacc" stroke="#c8cacc"></path><path d="M255.5 805.5L316.3 900L347.3 798.5Z" fill="#464a4d" stroke="#464a4d"></path><path d="M347.3 798.5L316.3 900L515 838.5Z" fill="#f8f9fa" stroke="#f8f9fa"></path><path d="M1743.5 900L1849.3 740L1723.5 761.5Z" fill="#5a5d61" stroke="#5a5d61"></path><path d="M500 0L319.3 0L361.3 81.5Z" fill="#c8cacc" stroke="#c8cacc"></path><path d="M361.3 81.5L241.5 0L261.5 153.5Z" fill="#84878a" stroke="#84878a"></path><path d="M114.8 527.5L218.5 700L271.5 624.5Z" fill="#33373b" stroke="#33373b"></path><path d="M271.5 624.5L218.5 700L347.3 798.5Z" fill="#b1b3b5" stroke="#b1b3b5"></path><path d="M159.8 503L302.5 465L249.5 384.5Z" fill="#212529" stroke="#212529"></path><path d="M218.5 700L255.5 805.5L347.3 798.5Z" fill="#5a5d61" stroke="#5a5d61"></path><path d="M1980 343.5L1879.3 252L1863.3 308.5Z" fill="#e0e1e3" stroke="#e0e1e3"></path><path d="M1863.3 308.5L1879.3 252L1792.5 192Z" fill="#6f7275" stroke="#6f7275"></path><path d="M1980 343.5L1863.3 308.5L1859.3 492Z" fill="#5a5d61" stroke="#5a5d61"></path><path d="M1794.5 0L1748.5 84.5L1918.3 64.5Z" fill="#b1b3b5" stroke="#b1b3b5"></path><path d="M1748.5 84.5L1790.3 0L1647.8 0Z" fill="#c8cacc" stroke="#c8cacc"></path><path d="M102.8 161L191.5 234L261.5 153.5Z" fill="#9a9d9f" stroke="#9a9d9f"></path><path d="M261.5 153.5L191.5 234L336.3 190Z" fill="#464a4d" stroke="#464a4d"></path><path d="M1918.3 64.5L1748.5 84.5L1792.5 192Z" fill="#33373b" stroke="#33373b"></path><path d="M131.8 298.5L159.8 503L249.5 384.5Z" fill="#6f7275" stroke="#6f7275"></path><path d="M255.5 805.5L269.5 900L316.3 900Z" fill="#5a5d61" stroke="#5a5d61"></path><path d="M118.8 900L269.5 900L255.5 805.5Z" fill="#b1b3b5" stroke="#b1b3b5"></path><path d="M118.8 900L255.5 805.5L56.8 794.5Z" fill="#84878a" stroke="#84878a"></path><path d="M1896.3 900L1891.3 752.5L1849.3 740Z" fill="#5a5d61" stroke="#5a5d61"></path><path d="M1980 615L1980 582.5L1813.3 584.5Z" fill="#212529" stroke="#212529"></path><path d="M319.3 0L241.5 0L361.3 81.5Z" fill="#9a9d9f" stroke="#9a9d9f"></path><path d="M102.8 161L131.8 298.5L191.5 234Z" fill="#b1b3b5" stroke="#b1b3b5"></path><path d="M191.5 234L131.8 298.5L249.5 384.5Z" fill="#c8cacc" stroke="#c8cacc"></path><path d="M0 398L114.8 527.5L159.8 503Z" fill="#212529" stroke="#212529"></path><path d="M159.8 503L114.8 527.5L271.5 624.5Z" fill="#212529" stroke="#212529"></path><path d="M1980 582.5L1859.3 492L1813.3 584.5Z" fill="#9a9d9f" stroke="#9a9d9f"></path><path d="M1879.3 252L1918.3 64.5L1792.5 192Z" fill="#33373b" stroke="#33373b"></path><path d="M1980 510L1980 343.5L1859.3 492Z" fill="#f8f9fa" stroke="#f8f9fa"></path><path d="M1980 615L1813.3 584.5L1849.3 740Z" fill="#b1b3b5" stroke="#b1b3b5"></path><path d="M1891.3 752.5L1980 615L1849.3 740Z" fill="#9a9d9f" stroke="#9a9d9f"></path><path d="M1980 183L1918.3 64.5L1879.3 252Z" fill="#f8f9fa" stroke="#f8f9fa"></path><path d="M1743.5 900L1896.3 900L1849.3 740Z" fill="#f8f9fa" stroke="#f8f9fa"></path><path d="M1891.3 752.5L1980 780.5L1980 615Z" fill="#33373b" stroke="#33373b"></path><path d="M1980 343.5L1980 183L1879.3 252Z" fill="#5a5d61" stroke="#5a5d61"></path><path d="M241.5 0L142.8 72.5L261.5 153.5Z" fill="#9a9d9f" stroke="#9a9d9f"></path><path d="M0 538.5L57.8 628L114.8 527.5Z" fill="#212529" stroke="#212529"></path><path d="M142.8 72.5L102.8 161L261.5 153.5Z" fill="#f8f9fa" stroke="#f8f9fa"></path><path d="M1896.3 900L1980 780.5L1891.3 752.5Z" fill="#5a5d61" stroke="#5a5d61"></path><path d="M0 398L159.8 503L131.8 298.5Z" fill="#c8cacc" stroke="#c8cacc"></path><path d="M114.8 527.5L57.8 628L218.5 700Z" fill="#33373b" stroke="#33373b"></path><path d="M1980 183L1980 63.5L1918.3 64.5Z" fill="#464a4d" stroke="#464a4d"></path><path d="M1918.3 64.5L1980 0L1794.5 0Z" fill="#b1b3b5" stroke="#b1b3b5"></path><path d="M56.8 794.5L255.5 805.5L218.5 700Z" fill="#9a9d9f" stroke="#9a9d9f"></path><path d="M1896.3 900L1980 900L1980 780.5Z" fill="#9a9d9f" stroke="#9a9d9f"></path><path d="M57.8 628L56.8 794.5L218.5 700Z" fill="#5a5d61" stroke="#5a5d61"></path><path d="M1980 63.5L1980 0L1918.3 64.5Z" fill="#e0e1e3" stroke="#e0e1e3"></path><path d="M0 372.5L0 398L131.8 298.5Z" fill="#f8f9fa" stroke="#f8f9fa"></path><path d="M57.8 628L0 685L56.8 794.5Z" fill="#9a9d9f" stroke="#9a9d9f"></path><path d="M0 398L0 538.5L114.8 527.5Z" fill="#212529" stroke="#212529"></path><path d="M0 278L0 372.5L131.8 298.5Z" fill="#f8f9fa" stroke="#f8f9fa"></path><path d="M0 278L131.8 298.5L102.8 161Z" fill="#6f7275" stroke="#6f7275"></path><path d="M0 103.5L0 278L102.8 161Z" fill="#212529" stroke="#212529"></path><path d="M241.5 0L87.8 0L142.8 72.5Z" fill="#5a5d61" stroke="#5a5d61"></path><path d="M142.8 72.5L0 103.5L102.8 161Z" fill="#9a9d9f" stroke="#9a9d9f"></path><path d="M0 538.5L0 685L57.8 628Z" fill="#464a4d" stroke="#464a4d"></path><path d="M0 685L0 762.5L56.8 794.5Z" fill="#84878a" stroke="#84878a"></path><path d="M56.8 794.5L0 900L118.8 900Z" fill="#6f7275" stroke="#6f7275"></path><path d="M87.8 0L0 103.5L142.8 72.5Z" fill="#212529" stroke="#212529"></path><path d="M0 762.5L0 900L56.8 794.5Z" fill="#464a4d" stroke="#464a4d"></path><path d="M87.8 0L0 0L0 103.5Z" fill="#464a4d" stroke="#464a4d"></path></g></svg>