<svg width="707" height="521" viewBox="0 0 707 521" fill="none" xmlns="http://www.w3.org/2000/svg">
<g clip-path="url(#clip0_238_105)">
<path opacity="0.1" d="M7.60974 249.787C18.7737 292.89 42.3871 330.151 79.7032 348.213C157.279 385.75 332.233 366.391 462.807 344.168C530.35 332.674 589.717 300.955 632.844 256.317L7.60974 249.787Z" fill="#FF5500"/>
<path opacity="0.1" d="M692.333 46.892H620.69C617.29 46.892 614.5 44.375 614.5 41.2994C614.5 38.2237 617.29 35.7003 620.69 35.7003H633.081C629.675 35.7003 626.892 33.1833 626.892 30.1013C626.892 27.0192 629.675 24.5087 633.081 24.5087H624.237C620.831 24.5087 618.042 21.9917 618.042 18.9096C618.042 15.8276 620.831 13.317 624.237 13.317H661.631C653.333 9.83043 643.635 7.35196 632.458 6.04851C530.491 -5.78525 494.088 2.04185 481.246 10.0873C465.24 20.2403 447.46 27.2853 428.839 30.8525C365.93 42.5836 248.281 56.6967 141.648 26.3579C88.6497 11.2495 49.2577 36.7469 25.6508 79.369H704.776C703.889 66.9831 701.235 55.541 696.363 45.5308C695.209 46.4207 693.791 46.8998 692.333 46.892V46.892Z" fill="#FF5500"/>
<path opacity="0.1" d="M1.53609 159.817C-1.21573 184.885 -0.280305 210.221 4.31262 235.019L633.325 255.816C650.641 237.875 665.352 217.597 677.03 195.575L1.53609 159.817ZM250.318 213.464H237.933C241.34 213.464 244.129 215.987 244.129 219.063C244.129 222.138 241.34 224.655 237.933 224.655H166.29C162.89 224.655 160.1 222.138 160.1 219.063C160.1 215.987 162.89 213.464 166.29 213.464H178.681C175.275 213.464 172.492 210.947 172.492 207.871C172.492 204.795 175.275 202.272 178.681 202.272H169.831C166.425 202.272 163.635 199.755 163.635 196.679C163.635 193.604 166.425 191.08 169.831 191.08H241.475C244.881 191.08 247.664 193.597 247.664 196.679C247.664 199.761 244.881 202.272 241.475 202.272H250.318C253.725 202.272 256.508 204.789 256.508 207.871C256.508 210.953 253.725 213.464 250.318 213.464Z" fill="#FF5500"/>
<path opacity="0.1" d="M704.802 79.7543L18.0732 94.8434C9.71789 114.254 4.17768 136.201 1.6261 158.943H692.77C697.268 145.638 700.606 131.968 702.745 118.087C704.808 104.725 705.631 91.7999 704.802 79.7543ZM141.057 129.227H128.672C132.078 129.227 134.867 131.751 134.867 134.827C134.867 137.902 132.078 140.426 128.672 140.426H57.0282C53.6282 140.426 50.8388 137.902 50.8388 134.827C50.8388 131.751 53.6282 129.227 57.0282 129.227H69.4197C66.0133 129.227 63.2304 126.71 63.2304 123.635C63.2304 120.559 66.0133 118.036 69.4197 118.036H60.5695C57.1631 118.036 54.3738 115.519 54.3738 112.443C54.3738 109.368 57.1631 106.844 60.5695 106.844H132.213C135.619 106.844 138.402 109.361 138.402 112.443C138.402 115.525 135.619 118.036 132.213 118.036H141.057C144.463 118.036 147.246 120.559 147.246 123.635C147.246 126.71 144.463 129.227 141.057 129.227Z" fill="#FF5500"/>
<path opacity="0.1" d="M350.331 501.525C508.992 501.525 637.612 489.704 637.612 475.123C637.612 460.541 508.992 448.72 350.331 448.72C191.671 448.72 63.0504 460.541 63.0504 475.123C63.0504 489.704 191.671 501.525 350.331 501.525Z" fill="#FF5500"/>
<g opacity="0.1">
<path opacity="0.1" d="M542.921 182.457C543.054 182.206 543.17 181.946 543.268 181.68C543.994 179.664 543.673 177.449 543.68 175.304C543.679 174.589 543.746 173.875 543.879 173.172C543.286 174.441 542.997 175.831 543.037 177.23C543.03 178.957 543.236 180.768 542.921 182.457Z" fill="black"/>
<path opacity="0.1" d="M622.155 279.432C619.488 281.416 615.535 280.896 612.842 278.938C610.149 276.979 608.51 273.904 607.373 270.777C605.952 266.988 604.898 262.712 601.659 260.278C600.496 259.405 599.088 258.834 597.95 257.961C595.38 255.996 594.094 252.753 593.169 249.645C591.98 245.729 591.041 241.703 589.312 238.004C587.583 234.306 584.871 230.864 581.131 229.176C577.634 227.602 573.598 227.705 569.979 226.427C563.745 224.231 559.137 218.998 552.947 216.533C550.966 215.699 549.087 214.638 547.349 213.374C544.303 211.274 543.493 210.086 543.043 206.381C542.4 200.821 536.745 195.973 537.625 190.733C537.482 191.017 537.355 191.309 537.246 191.607C535.318 197.257 541.745 202.375 542.388 208.301C542.805 212.006 543.673 213.194 546.694 215.293C548.432 216.558 550.31 217.618 552.292 218.453C558.481 220.918 563.089 226.158 569.324 228.347C572.942 229.631 576.979 229.522 580.475 231.095C584.216 232.784 586.902 236.232 588.657 239.924C590.411 243.616 591.35 247.629 592.513 251.565C593.458 254.673 594.698 257.916 597.295 259.88C598.458 260.754 599.866 261.325 601.003 262.198C604.217 264.632 605.297 268.908 606.717 272.697C607.887 275.811 609.526 278.893 612.219 280.845C614.912 282.797 618.864 283.323 621.532 281.339C623.235 280.055 624.102 278.097 624.674 275.997C624.166 277.351 623.294 278.54 622.155 279.432V279.432Z" fill="black"/>
<path opacity="0.1" d="M635.363 260.176C635.117 260.636 635.01 261.158 635.054 261.678C636.507 260.246 639.785 261.088 640.929 259.245C641.194 258.789 641.299 258.258 641.224 257.736C639.733 259.148 636.455 258.307 635.363 260.176Z" fill="black"/>
<path opacity="0.1" d="M625.921 271.156C625.799 271.798 625.677 272.485 625.523 273.152C629.456 274.379 634 271.226 634.643 267.245C633.081 270.308 629.225 272.356 625.921 271.156Z" fill="black"/>
</g>
<path opacity="0.1" d="M549.329 486.674C547.459 486.744 536.828 486.674 536.828 486.674C536.673 486.511 536.527 486.34 536.391 486.16C539.11 485.236 544.984 483.849 549.329 486.674Z" fill="black"/>
<path opacity="0.1" d="M579.736 486.674C577.866 486.744 567.235 486.674 567.235 486.674C567.08 486.511 566.934 486.34 566.798 486.16C569.504 485.236 575.378 483.849 579.736 486.674Z" fill="black"/>
<path opacity="0.1" d="M540.787 289.545C540.742 289.77 539.965 293.186 538.782 298.457C539.245 293.956 539.887 290.726 540.787 289.545Z" fill="black"/>
<path d="M531.764 44.452C531.764 44.452 477.647 41.1966 484.029 79.0801C484.029 79.0801 482.744 85.7707 488.837 88.8142C488.837 88.8142 488.933 86.0082 494.383 86.9585C496.326 87.2832 498.299 87.378 500.264 87.2411C502.919 87.0607 505.442 86.0191 507.45 84.2746V84.2746C507.45 84.2746 522.663 78.0014 528.582 53.1588C528.582 53.1588 532.959 47.7396 532.786 46.3526L523.652 50.2437C523.652 50.2437 526.77 56.8252 524.295 62.2958C524.295 62.2958 524 50.4877 522.245 50.7381C521.891 50.7959 517.502 53.0176 517.502 53.0176C517.502 53.0176 522.868 64.4853 518.787 72.8133C518.787 72.8133 520.323 58.6872 515.792 53.8458L509.365 57.5957C509.365 57.5957 515.638 69.4358 511.383 79.0993C511.383 79.0993 512.476 64.2798 508.015 58.5074L502.186 63.047C502.186 63.047 508.079 74.7203 504.487 82.7336C504.487 82.7336 504.018 65.4806 500.926 64.1771C500.926 64.1771 495.829 68.6718 495.052 70.5146C495.052 70.5146 499.088 78.9838 496.588 83.4527C496.588 83.4527 495.052 71.9593 493.792 71.8951C493.792 71.8951 488.714 79.5103 488.181 84.7369C488.181 84.7369 488.406 76.9676 492.558 71.1695C492.558 71.1695 487.648 72.0106 484.787 75.1954C484.787 75.1954 485.578 69.8083 493.786 69.3395C493.786 69.3395 497.982 63.5607 499.107 63.214C499.107 63.214 490.913 62.5269 485.944 64.7293C485.944 64.7293 490.315 59.6504 500.605 61.9555L506.389 57.2682C506.389 57.2682 495.604 55.7914 491.028 57.4223C491.028 57.4223 496.292 52.9277 507.938 56.2023L514.205 52.4589C514.205 52.4589 505.007 50.4813 499.525 51.1747C499.525 51.1747 505.309 48.0606 516.036 51.438L520.535 49.4283C520.535 49.4283 513.793 48.1055 511.82 47.9001C509.847 47.6946 509.744 47.1424 509.744 47.1424C514.026 46.4469 518.417 46.9561 522.425 48.6128C522.425 48.6128 531.924 45.0492 531.764 44.452Z" fill="#CACACA"/>
<path d="M476.259 27.61C476.259 27.61 451.835 26.1332 454.689 43.2513C454.689 43.2513 454.117 46.2756 456.862 47.6497C456.862 47.6497 456.9 46.3655 459.368 46.8149C460.245 46.9591 461.136 47.0022 462.022 46.9434C463.223 46.8578 464.364 46.3871 465.275 45.6014V45.6014C465.275 45.6014 472.145 42.7633 474.819 31.5396C474.819 31.5396 476.799 29.0932 476.747 28.4639L472.621 30.2233C472.621 30.2233 474.035 33.1962 472.923 35.6682C472.923 35.6682 472.788 30.3324 471.997 30.4609C471.837 30.4609 469.851 31.4882 469.851 31.4882C469.851 31.4882 472.28 36.6699 470.449 40.4325C470.449 40.4325 471.143 34.0502 469.099 31.8606L466.194 33.5557C466.194 33.5557 469.028 38.9108 467.106 43.277C467.106 43.277 467.595 36.58 465.583 33.9731L462.948 36.0214C462.948 36.0214 465.609 41.2929 463.989 44.9143C463.989 44.9143 463.777 37.1193 462.376 36.5286C462.376 36.5286 460.075 38.5576 459.722 39.3924C459.722 39.3924 461.547 43.2449 460.416 45.2418C460.416 45.2418 459.722 40.0473 459.13 40.028C459.13 40.028 456.836 43.4632 456.598 45.8069C456.709 43.6258 457.389 41.5117 458.571 39.6749C457.249 39.9248 456.029 40.5566 455.062 41.492C455.062 41.492 455.415 39.0585 459.137 38.8466C459.137 38.8466 461.033 36.2397 461.54 36.0792C461.54 36.0792 457.838 35.771 455.595 36.7662C455.595 36.7662 457.568 34.4675 462.222 35.482L464.793 33.3695C464.793 33.3695 459.921 32.7274 457.851 33.4337C457.851 33.4337 460.229 31.4047 465.493 32.888L468.321 31.1928C468.321 31.1928 464.169 30.3003 461.688 30.6214C461.688 30.6214 464.304 29.2152 469.15 30.7434L471.175 29.8316C471.175 29.8316 468.128 29.2345 467.241 29.1446C466.354 29.0547 466.297 28.8043 466.297 28.8043C468.226 28.4836 470.207 28.7059 472.017 29.4463C472.017 29.4463 476.329 27.8796 476.259 27.61Z" fill="#CACACA"/>
<path opacity="0.1" d="M689.692 468.734C699.251 468.734 707 467.426 707 465.812C707 464.199 699.251 462.891 689.692 462.891C680.132 462.891 672.383 464.199 672.383 465.812C672.383 467.426 680.132 468.734 689.692 468.734Z" fill="#FF5500"/>
<path opacity="0.1" d="M30.0598 517.334C39.6189 517.334 47.3681 516.026 47.3681 514.412C47.3681 512.799 39.6189 511.491 30.0598 511.491C20.5007 511.491 12.7515 512.799 12.7515 514.412C12.7515 516.026 20.5007 517.334 30.0598 517.334Z" fill="#FF5500"/>
<path opacity="0.1" d="M130.536 521C140.095 521 147.844 519.692 147.844 518.078C147.844 516.465 140.095 515.157 130.536 515.157C120.976 515.157 113.227 516.465 113.227 518.078C113.227 519.692 120.976 521 130.536 521Z" fill="#FF5500"/>
<path d="M651.81 501.487C666.083 501.487 677.654 499.532 677.654 497.121C677.654 494.709 666.083 492.754 651.81 492.754C637.537 492.754 625.966 494.709 625.966 497.121C625.966 499.532 637.537 501.487 651.81 501.487Z" fill="#CACACA"/>
<path d="M662.492 489.987C663.672 489.025 664.532 487.729 664.96 486.269C665.275 484.799 664.645 483.027 663.238 482.487C661.656 481.884 659.966 482.982 658.687 484.086C657.408 485.191 655.936 486.449 654.259 486.218C655.121 485.438 655.767 484.447 656.132 483.343C656.497 482.239 656.569 481.059 656.341 479.919C656.268 479.447 656.068 479.003 655.763 478.635C654.882 477.697 653.295 478.095 652.241 478.834C648.899 481.184 647.967 485.717 647.947 489.801C647.613 488.33 647.896 486.796 647.889 485.306C647.883 483.816 647.465 482.096 646.193 481.306C645.403 480.885 644.517 480.676 643.622 480.702C642.118 480.645 640.447 480.792 639.418 481.89C638.133 483.258 638.474 485.544 639.586 487.027C640.697 488.51 642.381 489.473 643.93 490.507C645.177 491.248 646.24 492.259 647.041 493.467C647.135 493.637 647.212 493.816 647.272 494H656.688C658.795 492.93 660.747 491.58 662.492 489.987V489.987Z" fill="#CACACA"/>
<path d="M38.1388 436.148C38.1388 436.148 41.6673 440.758 36.5063 447.705C31.3453 454.653 27.0905 460.547 28.7937 464.888C28.7937 464.888 36.577 451.956 42.9334 451.77C49.2899 451.583 45.1058 443.923 38.1388 436.148Z" fill="#CACACA"/>
<path opacity="0.1" d="M38.1387 436.148C38.4451 436.593 38.6875 437.079 38.8586 437.592C45.0415 444.848 48.3322 451.622 42.3935 451.789C36.8533 451.949 30.1819 461.838 28.6201 464.335C28.6747 464.529 28.7391 464.72 28.8129 464.907C28.8129 464.907 36.5962 451.975 42.9527 451.789C49.3091 451.603 45.1058 443.923 38.1387 436.148Z" fill="black"/>
<path d="M44.7009 442.023C44.7009 443.647 44.5145 444.964 44.2896 444.964C44.0646 444.964 43.8846 443.679 43.8846 442.023C43.8846 440.366 44.1096 441.162 44.341 441.162C44.5724 441.162 44.7009 440.398 44.7009 442.023Z" fill="#FFD037"/>
<path d="M46.9247 443.962C45.4979 444.739 44.2574 445.207 44.1482 445.008C44.0389 444.809 45.1122 444.026 46.5391 443.249C47.9659 442.472 47.4003 443.037 47.5096 443.249C47.6188 443.461 48.3772 443.185 46.9247 443.962Z" fill="#FFD037"/>
<path d="M19.4871 436.148C19.4871 436.148 15.9586 440.758 21.1132 447.705C26.2678 454.653 30.529 460.547 28.8258 464.888C28.8258 464.888 21.0361 451.956 14.686 451.77C8.336 451.583 12.5137 443.923 19.4871 436.148Z" fill="#CACACA"/>
<path opacity="0.1" d="M19.4872 436.148C19.1779 436.591 18.9354 437.078 18.7673 437.592C12.5844 444.848 9.28726 451.622 15.2324 451.789C20.7662 451.949 27.444 461.838 28.9993 464.335C28.9469 464.529 28.8847 464.72 28.813 464.907C28.813 464.907 21.0232 451.975 14.6732 451.789C8.32319 451.603 12.5137 443.923 19.4872 436.148Z" fill="black"/>
<path d="M12.925 442.023C12.925 443.647 13.105 444.964 13.3299 444.964C13.5549 444.964 13.7348 443.679 13.7348 442.023C13.7348 440.366 13.5099 441.162 13.2849 441.162C13.06 441.162 12.925 440.398 12.925 442.023Z" fill="#FFD037"/>
<path d="M10.6691 443.962C12.0959 444.739 13.3428 445.207 13.452 445.008C13.5613 444.809 12.488 444.026 11.0611 443.249C9.6343 442.472 10.1935 443.037 10.0906 443.249C9.98779 443.461 9.24224 443.185 10.6691 443.962Z" fill="#FFD037"/>
<path d="M14.0497 464.303C14.0497 464.303 23.9219 464.002 26.9041 461.883C29.8863 459.764 42.0914 457.24 42.8306 460.598C43.5697 463.957 57.6644 477.485 46.5197 477.575C35.3751 477.665 20.6247 475.835 17.6554 474.031C14.686 472.227 14.0497 464.303 14.0497 464.303Z" fill="#A8A8A8"/>
<path opacity="0.2" d="M46.7061 476.426C35.5614 476.516 20.8111 474.686 17.8418 472.882C15.5794 471.508 14.6796 466.57 14.3775 464.29H14.0497C14.0497 464.29 14.6925 472.246 17.6425 474.05C20.5926 475.855 35.3622 477.684 46.5069 477.595C49.7205 477.595 50.8324 476.42 50.7745 474.731C50.3246 475.765 49.1035 476.407 46.7061 476.426Z" fill="black"/>
<path d="M154.835 202.782C177.874 202.782 196.551 184.123 196.551 161.105C196.551 138.088 177.874 119.429 154.835 119.429C131.795 119.429 113.118 138.088 113.118 161.105C113.118 184.123 131.795 202.782 154.835 202.782Z" fill="#FF5500"/>
<path d="M393.658 304.604H343.655V305.465H393.658V304.604Z" fill="#F2F2F2"/>
<path d="M324.689 440.686H240.201V440.068H324.081V410.096H247.304L243.574 402.195L244.122 401.928L247.687 409.477H324.689V440.686Z" fill="#2F2E41"/>
<path d="M250.978 455.327C254.549 455.327 257.444 452.242 257.444 448.437C257.444 444.632 254.549 441.547 250.978 441.547C247.407 441.547 244.512 444.632 244.512 448.437C244.512 452.242 247.407 455.327 250.978 455.327Z" fill="#3F3D56"/>
<path d="M313.912 455.327C317.483 455.327 320.378 452.242 320.378 448.437C320.378 444.632 317.483 441.547 313.912 441.547C310.341 441.547 307.446 444.632 307.446 448.437C307.446 452.242 310.341 455.327 313.912 455.327Z" fill="#3F3D56"/>
<path d="M388.054 317.523C390.196 317.523 391.933 315.788 391.933 313.647C391.933 311.507 390.196 309.771 388.054 309.771C385.911 309.771 384.174 311.507 384.174 313.647C384.174 315.788 385.911 317.523 388.054 317.523Z" fill="#3F3D56"/>
<path d="M333.639 400.206H238.395L217.786 333.026H354.863L354.738 333.421L333.639 400.206ZM238.846 399.598H333.192L354.031 333.634H218.61L238.846 399.598Z" fill="#2F2E41"/>
<path d="M325.963 396.76H242.7L224.683 337.332H344.517L344.408 337.682L325.963 396.76Z" fill="#CCCCCC"/>
<path d="M355.474 326.997L354.863 326.847L359.036 312.355H383.312V312.938H359.523L355.474 326.997Z" fill="#2F2E41"/>
<path d="M347.966 353.697H224.683V354.558H347.966V353.697Z" fill="#2F2E41"/>
<path d="M285.894 333.026H285.031V400.206H285.894V333.026Z" fill="#2F2E41"/>
<path d="M313.732 333.456L309.377 399.823L309.982 399.862L314.337 333.496L313.732 333.456Z" fill="#2F2E41"/>
<path d="M258.812 333.455L258.207 333.495L262.537 399.863L263.142 399.823L258.812 333.455Z" fill="#2F2E41"/>
<path d="M266.927 315.8H216.924V316.662H266.927V315.8Z" fill="#F2F2F2"/>
<path d="M231.58 308.91H230.718V315.8H231.58V308.91Z" fill="#F2F2F2"/>
<path d="M334.172 280.488H285.031V281.349H334.172V280.488Z" fill="#F2F2F2"/>
<path d="M320.378 281.349H319.516V288.24H320.378V281.349Z" fill="#F2F2F2"/>
<path d="M298.825 281.349H297.963V288.24H298.825V281.349Z" fill="#F2F2F2"/>
<path d="M249.685 280.488H199.682V281.349H249.685V280.488Z" fill="#F2F2F2"/>
<path d="M235.891 281.349H235.029V287.378H235.891V281.349Z" fill="#F2F2F2"/>
<path d="M214.338 281.349H213.476V287.378H214.338V281.349Z" fill="#F2F2F2"/>
<path d="M445.037 259.582C445.285 259.922 445.507 260.281 445.699 260.655L483.002 264.878L488.427 257.498L500.56 264.286L489.88 282.211L444.179 270.136C443.016 271.261 441.54 272.004 439.948 272.264C438.355 272.525 436.722 272.291 435.265 271.595C433.808 270.898 432.596 269.771 431.79 268.364C430.984 266.957 430.623 265.336 430.755 263.718C430.887 262.099 431.505 260.559 432.527 259.303C433.549 258.046 434.927 257.133 436.477 256.684C438.027 256.235 439.677 256.272 441.206 256.79C442.735 257.307 444.071 258.282 445.037 259.582V259.582Z" fill="#FFB8B8"/>
<path d="M497.472 270.734C497.177 270.603 496.901 270.43 496.655 270.221L481.922 257.736C481.568 257.436 481.279 257.066 481.075 256.648C480.871 256.23 480.755 255.774 480.734 255.309C480.714 254.843 480.79 254.379 480.957 253.944C481.125 253.51 481.38 253.116 481.707 252.786L495.076 239.281C495.638 238.71 496.385 238.36 497.181 238.296C497.978 238.232 498.77 238.459 499.415 238.934L509.525 246.319C510.156 246.78 510.607 247.449 510.801 248.209C510.994 248.969 510.917 249.773 510.584 250.483L501.838 269.085C501.465 269.877 500.802 270.491 499.987 270.799C499.172 271.107 498.27 271.083 497.472 270.734H497.472Z" fill="#ED960C"/>
<path d="M555.735 448.581L546.859 451.021L533.32 417.587L546.42 413.986L555.735 448.581Z" fill="#FFB8B8"/>
<path d="M479.867 455.327L470.522 455.327L466.075 419.154L479.869 419.154L479.867 455.327Z" fill="#FFB8B8"/>
<path d="M511.502 205.972C513.8 196.03 507.595 186.11 497.643 183.815C487.692 181.52 477.762 187.718 475.465 197.66C473.167 207.602 479.372 217.522 489.324 219.817C499.275 222.113 509.205 215.914 511.502 205.972Z" fill="#FFB8B8"/>
<path d="M478.791 429.489H466.091C465.223 429.487 464.388 429.159 463.755 428.569C463.122 427.979 462.739 427.173 462.683 426.314C458.899 366.641 461.112 323.837 469.649 291.607C469.687 291.466 469.733 291.327 469.787 291.192L470.468 289.505C470.719 288.876 471.155 288.337 471.72 287.957C472.285 287.578 472.953 287.376 473.635 287.378H499.751C500.243 287.378 500.729 287.483 501.176 287.687C501.624 287.891 502.021 288.189 502.341 288.56L505.888 292.665C505.957 292.745 506.022 292.827 506.084 292.913C522.08 315.038 536.414 358.294 553.016 416.435C553.261 417.28 553.164 418.186 552.745 418.961C552.326 419.736 551.619 420.318 550.773 420.583L537.125 424.915C536.342 425.16 535.495 425.117 534.741 424.796C533.986 424.474 533.373 423.894 533.013 423.162L497.595 350.296C497.348 349.787 496.941 349.37 496.436 349.108C495.931 348.846 495.355 348.752 494.792 348.84C494.229 348.928 493.709 349.194 493.31 349.598C492.911 350.002 492.654 350.522 492.577 351.083L482.17 426.564C482.056 427.373 481.652 428.114 481.031 428.652C480.41 429.189 479.615 429.486 478.791 429.489V429.489Z" fill="#2F2E41"/>
<path d="M504.489 293.407C504.454 293.407 504.418 293.406 504.383 293.406L472.791 292.405C471.979 292.382 471.202 292.067 470.602 291.517C470.002 290.967 469.619 290.219 469.523 289.409C465.518 256.879 476.502 248.164 481.41 245.928C481.82 245.742 482.175 245.453 482.441 245.089C482.707 244.725 482.875 244.298 482.929 243.85L483.353 240.44C483.426 239.838 483.657 239.266 484.025 238.784C491.72 228.781 502.228 225.577 507.806 224.559C508.259 224.477 508.723 224.489 509.171 224.593C509.619 224.697 510.041 224.891 510.412 225.164C510.782 225.436 511.094 225.782 511.328 226.179C511.561 226.577 511.712 227.017 511.771 227.475L512.407 232.371C512.472 232.838 512.657 233.28 512.945 233.652C528.994 254.706 511.115 285.792 507.368 291.81C507.062 292.299 506.637 292.701 506.134 292.981C505.63 293.26 505.065 293.407 504.489 293.407Z" fill="#FF5500"/>
<path d="M501.382 339.275C502.353 338.597 503.164 337.716 503.756 336.692C504.348 335.669 504.707 334.529 504.809 333.353C504.91 332.177 504.751 330.993 504.342 329.884C503.934 328.776 503.286 327.77 502.445 326.937L508.319 256.372L490.829 258.766L490.497 327.326C489.185 328.825 488.471 330.751 488.491 332.739C488.51 334.726 489.262 336.637 490.604 338.11C491.946 339.583 493.784 340.515 495.77 340.73C497.757 340.945 499.753 340.427 501.382 339.275H501.382Z" fill="#FFB8B8"/>
<path d="M509.566 266.708C509.242 266.707 508.92 266.66 508.609 266.568L490.042 261.07C489.596 260.938 489.181 260.714 488.826 260.412C488.47 260.111 488.18 259.738 487.974 259.318C487.768 258.898 487.652 258.439 487.631 257.972C487.611 257.504 487.687 257.037 487.855 256.6L494.726 238.728C495.013 237.973 495.559 237.348 496.266 236.965C496.973 236.582 497.793 236.468 498.577 236.643L510.843 239.328C511.609 239.496 512.292 239.927 512.775 240.548C513.259 241.17 513.511 241.941 513.49 242.73L512.919 263.414C512.895 264.294 512.531 265.13 511.905 265.745C511.279 266.359 510.44 266.705 509.566 266.708V266.708Z" fill="#EB4E00"/>
<path d="M500.324 204.915C497.953 201.206 495.9 197.301 494.188 193.242C493.358 190.836 493.296 188.032 494.629 185.879C497.122 181.851 503.144 181.907 507.387 184.013C513.519 187.057 517.743 193.079 520.395 199.431C523.047 205.783 524.368 212.598 526.319 219.2C528.271 225.802 530.987 232.407 535.833 237.273C540.68 242.14 548.058 244.93 554.512 242.741C557.131 241.91 559.374 240.179 560.851 237.848C561.57 236.681 562.001 235.355 562.106 233.982C562.212 232.609 561.989 231.228 561.457 229.957C566.395 235.171 566.824 243.856 563.046 249.935C559.267 256.013 551.9 259.359 544.776 259.021C537.652 258.683 530.898 254.966 526.064 249.654C521.23 244.341 518.203 237.544 516.572 230.534C515.319 225.151 514.823 219.526 512.563 214.483C510.303 209.441 505.649 204.93 500.175 205.02L500.324 204.915Z" fill="#2F2E41"/>
<path d="M490.293 201.152C491.136 204.205 489.195 207.624 486.284 208.836C483.373 210.048 479.837 209.219 477.431 207.155C475.069 204.989 473.616 202.006 473.369 198.815C473.16 196.94 473.322 195.044 473.846 193.236C474.37 191.428 475.245 189.743 476.421 188.277C477.62 186.828 479.15 185.69 480.884 184.96C482.617 184.229 484.502 183.928 486.38 184.081C486.155 183.417 486.11 182.706 486.25 182.021C486.391 181.337 486.711 180.702 487.178 180.184C488.129 179.159 489.349 178.422 490.7 178.057C494.56 176.951 498.693 177.254 502.365 178.912C506.007 180.576 509.25 183.009 511.87 186.044C515.914 190.524 519.027 196.234 518.879 202.255C518.73 208.276 514.544 214.389 508.6 215.274C507.373 213.959 507.12 212.021 507.108 210.225C507.095 208.429 507.251 206.575 506.624 204.89C505.996 203.205 504.265 201.745 502.522 202.154C501.034 202.503 500.149 203.994 498.907 204.883C498.203 205.387 497.377 205.696 496.513 205.779C495.648 205.862 494.776 205.716 493.984 205.355C493.192 204.995 492.507 204.432 491.999 203.724C491.49 203.016 491.176 202.188 491.087 201.322L490.293 201.152Z" fill="#2F2E41"/>
<path d="M537.083 451.805L558.978 445.853L562.582 459.085L528.303 468.403L528.068 467.543C527.175 464.262 527.623 460.76 529.313 457.809C531.004 454.857 533.799 452.698 537.083 451.805V451.805Z" fill="#2F2E41"/>
<path d="M460.805 451.882H483.497V465.595H447.971V464.704C447.971 461.303 449.323 458.042 451.73 455.638C454.137 453.233 457.401 451.882 460.805 451.882V451.882Z" fill="#2F2E41"/>
<line y1="-0.5" x2="48.4347" y2="-0.5" transform="matrix(0.70745 -0.706764 0.70745 0.706764 137.57 178.089)" stroke="#E5E5E5"/>
<line y1="-0.5" x2="48.4346" y2="-0.5" transform="matrix(0.70745 0.706763 -0.70745 0.706763 137.57 143.857)" stroke="#E6E6E6"/>
</g>
<defs>
<clipPath id="clip0_238_105">
<rect width="707" height="521" fill="white"/>
</clipPath>
</defs>
</svg>
