<svg id="visual" viewBox="0 0 770 80" width="770" height="80" xmlns="http://www.w3.org/2000/svg" xmlns:xlink="http://www.w3.org/1999/xlink" version="1.1"><rect x="0" y="0" width="770" height="80" fill="#f8f9fa"></rect><path d="M0 65L18.3 61.2C36.7 57.3 73.3 49.7 110 45.8C146.7 42 183.3 42 220 42.7C256.7 43.3 293.3 44.7 330 44.2C366.7 43.7 403.3 41.3 440 42.2C476.7 43 513.3 47 550 48.7C586.7 50.3 623.3 49.7 660 48.7C696.7 47.7 733.3 46.3 751.7 45.7L770 45L770 0L751.7 0C733.3 0 696.7 0 660 0C623.3 0 586.7 0 550 0C513.3 0 476.7 0 440 0C403.3 0 366.7 0 330 0C293.3 0 256.7 0 220 0C183.3 0 146.7 0 110 0C73.3 0 36.7 0 18.3 0L0 0Z" fill="#f8f9fa"></path><path d="M0 38L18.3 40.7C36.7 43.3 73.3 48.7 110 48.7C146.7 48.7 183.3 43.3 220 43.3C256.7 43.3 293.3 48.7 330 50C366.7 51.3 403.3 48.7 440 45C476.7 41.3 513.3 36.7 550 35.2C586.7 33.7 623.3 35.3 660 39C696.7 42.7 733.3 48.3 751.7 51.2L770 54L770 0L751.7 0C733.3 0 696.7 0 660 0C623.3 0 586.7 0 550 0C513.3 0 476.7 0 440 0C403.3 0 366.7 0 330 0C293.3 0 256.7 0 220 0C183.3 0 146.7 0 110 0C73.3 0 36.7 0 18.3 0L0 0Z" fill="#f0f1f1"></path><path d="M0 34L18.3 34.2C36.7 34.3 73.3 34.7 110 33.5C146.7 32.3 183.3 29.7 220 27.8C256.7 26 293.3 25 330 26.5C366.7 28 403.3 32 440 33.7C476.7 35.3 513.3 34.7 550 33C586.7 31.3 623.3 28.7 660 28.5C696.7 28.3 733.3 30.7 751.7 31.8L770 33L770 0L751.7 0C733.3 0 696.7 0 660 0C623.3 0 586.7 0 550 0C513.3 0 476.7 0 440 0C403.3 0 366.7 0 330 0C293.3 0 256.7 0 220 0C183.3 0 146.7 0 110 0C73.3 0 36.7 0 18.3 0L0 0Z" fill="#e8e9e9"></path><path d="M0 17L18.3 17.8C36.7 18.7 73.3 20.3 110 21.8C146.7 23.3 183.3 24.7 220 25.8C256.7 27 293.3 28 330 26.3C366.7 24.7 403.3 20.3 440 19.2C476.7 18 513.3 20 550 20.2C586.7 20.3 623.3 18.7 660 19.3C696.7 20 733.3 23 751.7 24.5L770 26L770 0L751.7 0C733.3 0 696.7 0 660 0C623.3 0 586.7 0 550 0C513.3 0 476.7 0 440 0C403.3 0 366.7 0 330 0C293.3 0 256.7 0 220 0C183.3 0 146.7 0 110 0C73.3 0 36.7 0 18.3 0L0 0Z" fill="#e0e1e1"></path><path d="M0 10L18.3 9.8C36.7 9.7 73.3 9.3 110 9.5C146.7 9.7 183.3 10.3 220 12C256.7 13.7 293.3 16.3 330 17.3C366.7 18.3 403.3 17.7 440 16.2C476.7 14.7 513.3 12.3 550 10.5C586.7 8.7 623.3 7.3 660 7.3C696.7 7.3 733.3 8.7 751.7 9.3L770 10L770 0L751.7 0C733.3 0 696.7 0 660 0C623.3 0 586.7 0 550 0C513.3 0 476.7 0 440 0C403.3 0 366.7 0 330 0C293.3 0 256.7 0 220 0C183.3 0 146.7 0 110 0C73.3 0 36.7 0 18.3 0L0 0Z" fill="#d9d9d9"></path></svg>