<svg id="visual" viewBox="0 0 770 80" width="770" height="80" xmlns="http://www.w3.org/2000/svg" xmlns:xlink="http://www.w3.org/1999/xlink" version="1.1"><rect x="0" y="0" width="770" height="80" fill="#ed960c"></rect><path d="M0 31L18.3 30.7C36.7 30.3 73.3 29.7 110 27.7C146.7 25.7 183.3 22.3 220 22C256.7 21.7 293.3 24.3 330 26.8C366.7 29.3 403.3 31.7 440 31.3C476.7 31 513.3 28 550 27.3C586.7 26.7 623.3 28.3 660 28.5C696.7 28.7 733.3 27.3 751.7 26.7L770 26L770 81L751.7 81C733.3 81 696.7 81 660 81C623.3 81 586.7 81 550 81C513.3 81 476.7 81 440 81C403.3 81 366.7 81 330 81C293.3 81 256.7 81 220 81C183.3 81 146.7 81 110 81C73.3 81 36.7 81 18.3 81L0 81Z" fill="#ed960c"></path><path d="M0 24L18.3 25.7C36.7 27.3 73.3 30.7 110 34.3C146.7 38 183.3 42 220 42C256.7 42 293.3 38 330 34.8C366.7 31.7 403.3 29.3 440 30.3C476.7 31.3 513.3 35.7 550 38.2C586.7 40.7 623.3 41.3 660 41.5C696.7 41.7 733.3 41.3 751.7 41.2L770 41L770 81L751.7 81C733.3 81 696.7 81 660 81C623.3 81 586.7 81 550 81C513.3 81 476.7 81 440 81C403.3 81 366.7 81 330 81C293.3 81 256.7 81 220 81C183.3 81 146.7 81 110 81C73.3 81 36.7 81 18.3 81L0 81Z" fill="#eea64f"></path><path d="M0 38L18.3 38C36.7 38 73.3 38 110 39.8C146.7 41.7 183.3 45.3 220 45.7C256.7 46 293.3 43 330 41C366.7 39 403.3 38 440 39.8C476.7 41.7 513.3 46.3 550 49C586.7 51.7 623.3 52.3 660 50.7C696.7 49 733.3 45 751.7 43L770 41L770 81L751.7 81C733.3 81 696.7 81 660 81C623.3 81 586.7 81 550 81C513.3 81 476.7 81 440 81C403.3 81 366.7 81 330 81C293.3 81 256.7 81 220 81C183.3 81 146.7 81 110 81C73.3 81 36.7 81 18.3 81L0 81Z" fill="#ecb77e"></path><path d="M0 59L18.3 58.2C36.7 57.3 73.3 55.7 110 54C146.7 52.3 183.3 50.7 220 51C256.7 51.3 293.3 53.7 330 54.5C366.7 55.3 403.3 54.7 440 55.5C476.7 56.3 513.3 58.7 550 58.7C586.7 58.7 623.3 56.3 660 56.2C696.7 56 733.3 58 751.7 59L770 60L770 81L751.7 81C733.3 81 696.7 81 660 81C623.3 81 586.7 81 550 81C513.3 81 476.7 81 440 81C403.3 81 366.7 81 330 81C293.3 81 256.7 81 220 81C183.3 81 146.7 81 110 81C73.3 81 36.7 81 18.3 81L0 81Z" fill="#e5c8ab"></path><path d="M0 64L18.3 63.5C36.7 63 73.3 62 110 63.3C146.7 64.7 183.3 68.3 220 68.8C256.7 69.3 293.3 66.7 330 66C366.7 65.3 403.3 66.7 440 67.5C476.7 68.3 513.3 68.7 550 67.8C586.7 67 623.3 65 660 63.5C696.7 62 733.3 61 751.7 60.5L770 60L770 81L751.7 81C733.3 81 696.7 81 660 81C623.3 81 586.7 81 550 81C513.3 81 476.7 81 440 81C403.3 81 366.7 81 330 81C293.3 81 256.7 81 220 81C183.3 81 146.7 81 110 81C73.3 81 36.7 81 18.3 81L0 81Z" fill="#d9d9d9"></path></svg>