<svg width="506" height="449" viewBox="0 0 506 449" fill="none" xmlns="http://www.w3.org/2000/svg">
<path d="M227.147 46.1398H23.8009V160.778H227.147V46.1398Z" fill="#ED960C"/>
<path d="M204.711 151.003H0V35H204.711V151.003ZM1.36474 149.638H203.347V36.3647H1.36474V149.638Z" fill="#6C757D"/>
<path d="M490.988 11.6003H287.641V126.239H490.988V11.6003Z" fill="#6C757D"/>
<path d="M506 116.003H301.289V0H506V116.003ZM302.654 114.638H504.635V1.36474H302.654V114.638Z" fill="#ED960C"/>
<path d="M358.004 449H98.0203C97.8393 449 97.6657 448.928 97.5377 448.8C97.4098 448.672 97.3379 448.499 97.3379 448.318C97.3379 448.137 97.4098 447.963 97.5377 447.835C97.6657 447.707 97.8393 447.635 98.0203 447.635H358.004C358.184 447.635 358.358 447.707 358.486 447.835C358.614 447.963 358.686 448.137 358.686 448.318C358.686 448.499 358.614 448.672 358.486 448.8C358.358 448.928 358.184 449 358.004 449Z" fill="#CCCCCC"/>
<path d="M260.777 287.778C260.836 286.544 261.164 285.338 261.739 284.245C262.314 283.152 263.121 282.198 264.105 281.451C265.088 280.704 266.223 280.181 267.43 279.92C268.638 279.659 269.887 279.666 271.091 279.94L282.263 264.196L293.487 268.652L277.398 290.664C276.803 292.656 275.498 294.362 273.73 295.456C271.962 296.551 269.854 296.959 267.806 296.603C265.757 296.247 263.91 295.152 262.615 293.526C261.319 291.899 260.665 289.854 260.777 287.778L260.777 287.778Z" fill="#A0616A"/>
<path d="M273.033 274.238L292.896 240.831L284.803 219.251L295.825 189.858L296.231 190.033C296.498 190.147 302.761 192.941 303.689 202.95L316.355 242.757L282.551 286.611L273.033 274.238Z" fill="#6C757D"/>
<path d="M165.155 151.424C166.38 151.577 167.557 151.998 168.602 152.656C169.648 153.313 170.536 154.192 171.205 155.23C171.874 156.268 172.307 157.441 172.474 158.664C172.641 159.888 172.538 161.134 172.171 162.313L187.005 174.669L181.695 185.514L160.992 167.771C159.052 167.024 157.453 165.591 156.498 163.744C155.543 161.897 155.299 159.764 155.812 157.749C156.326 155.734 157.56 153.977 159.282 152.811C161.004 151.645 163.093 151.152 165.155 151.424V151.424Z" fill="#A0616A"/>
<path d="M177.707 164.689L209.478 187.076L231.619 180.676L260.072 193.937L259.866 194.329C259.732 194.586 256.461 200.614 246.411 200.765L205.744 210.316L164.635 173.222L177.707 164.689Z" fill="#6C757D"/>
<path d="M235.842 436.92H224.797L219.542 394.317L235.844 394.318L235.842 436.92Z" fill="#A0616A"/>
<path d="M213.654 433.764H238.209V447.176H203.495V443.922C203.495 441.228 204.566 438.644 206.471 436.739C208.376 434.834 210.96 433.764 213.654 433.764Z" fill="#2F2E41"/>
<path d="M279.988 436.92H268.942L263.688 394.317L279.989 394.318L279.988 436.92Z" fill="#A0616A"/>
<path d="M257.799 433.764H282.354V447.176H247.641V443.922C247.641 441.228 248.711 438.644 250.616 436.739C252.521 434.834 255.105 433.764 257.799 433.764V433.764Z" fill="#2F2E41"/>
<path d="M283.916 281.415L283.015 344.48L282.114 427.365L262.293 425.563L252.383 311.145L239.77 425.563H219.308L217.247 310.245L224.455 285.018L283.916 281.415Z" fill="#2F2E41"/>
<path d="M222.479 285.403L219.459 285.272L233.485 208.01L227.742 184.657C227.444 183.442 227.601 182.159 228.185 181.053C228.769 179.946 229.738 179.092 230.91 178.653L241.242 174.778L244.892 164.74L273.693 167.843L274.401 175.688C277.522 176.689 303.222 185.248 301.449 195.001C299.699 204.627 289.365 234.912 288.84 236.447L287.03 279.879L286.807 279.99C286.54 280.124 266.688 289.885 245.122 289.883C237.528 289.883 229.717 288.672 222.479 285.403Z" fill="#6C757D"/>
<path d="M276.359 148.982C281.852 138.933 278.159 126.333 268.11 120.84C258.061 115.347 245.462 119.04 239.969 129.089C234.475 139.138 238.168 151.737 248.217 157.231C258.266 162.724 270.866 159.031 276.359 148.982Z" fill="#A0616A"/>
<path d="M274.96 159.109C271.008 163.318 263.669 161.059 263.154 155.308C263.114 154.861 263.117 154.412 263.163 153.966C263.429 151.418 264.901 149.106 264.548 146.416C264.468 145.747 264.219 145.109 263.824 144.563C260.674 140.346 253.282 146.449 250.31 142.631C248.488 140.29 250.63 136.605 249.231 133.989C247.386 130.536 241.918 132.239 238.49 130.348C234.676 128.244 234.904 122.391 237.415 118.832C240.477 114.49 245.846 112.174 251.148 111.84C256.451 111.506 261.716 112.939 266.666 114.868C272.291 117.06 277.868 120.089 281.329 125.035C285.538 131.049 285.943 139.135 283.838 146.167C282.558 150.445 278.187 155.671 274.96 159.109Z" fill="#2F2E41"/>
<path d="M115.529 61.3078C121.609 61.3078 126.601 62.5238 130.505 64.9558C134.473 67.3238 137.545 69.5958 139.721 71.7718C139.977 72.0278 140.105 72.3158 140.105 72.6358C140.105 72.8278 140.009 73.0838 139.817 73.4038C139.689 73.6598 139.593 73.8518 139.529 73.9798C139.209 74.4278 138.665 75.2278 137.897 76.3798C137.193 77.4678 136.617 78.2678 136.169 78.7798C135.977 79.0358 135.753 79.3238 135.497 79.6438C135.305 79.8998 135.113 80.0918 134.921 80.2198C134.793 80.3478 134.569 80.4118 134.249 80.4118C134.121 80.4118 133.801 80.2198 133.289 79.8358C132.841 79.3878 132.393 79.0038 131.945 78.6838C129.385 76.4438 126.889 74.5238 124.457 72.9238C122.025 71.3238 119.689 70.5238 117.449 70.5238C115.657 70.5238 114.185 70.9398 113.033 71.7718C111.881 72.5398 111.305 74.3318 111.305 77.1478C111.305 79.8998 112.329 82.0438 114.377 83.5798C116.425 85.1158 119.145 86.5878 122.537 87.9958C122.857 88.1238 124.713 88.9238 128.105 90.3958C131.561 91.8678 134.601 94.6838 137.225 98.8438C139.913 103.004 141.257 107.964 141.257 113.724C141.257 119.868 138.953 124.476 134.345 127.548C129.737 130.62 123.369 132.156 115.241 132.156C106.025 132.156 100.169 130.396 97.6729 126.876C95.1769 123.292 93.8649 121.436 93.7369 121.308C93.4809 120.988 93.3529 120.668 93.3529 120.348C93.3529 120.156 93.6089 119.74 94.1209 119.1C94.9529 117.948 96.1689 116.572 97.7689 114.972C98.0249 114.716 98.2809 114.588 98.5369 114.588C98.8569 114.588 99.2089 114.844 99.5929 115.356C99.9769 115.804 100.297 116.156 100.553 116.412C104.329 120.188 108.617 122.076 113.417 122.076C115.849 122.076 117.961 121.628 119.753 120.732C121.545 119.772 122.441 118.012 122.441 115.452C122.441 111.036 118.953 106.332 111.977 101.34C110.825 100.572 109.737 99.9318 108.713 99.4198C106.025 97.9478 103.721 96.5078 101.801 95.0998C99.8809 93.6918 98.1849 91.8358 96.7129 89.5318C95.2409 87.2278 94.5049 84.5398 94.5049 81.4678C94.5049 77.6278 95.6889 74.1718 98.0569 71.0998C100.489 68.0278 103.369 65.6278 106.697 63.8998C110.089 62.1718 113.033 61.3078 115.529 61.3078Z" fill="#D9D9D9"/>
<path d="M413.4 43.776C411.8 43.776 410.2 44.448 408.6 45.792C407.064 47.136 405.752 49.376 404.664 52.512C403.576 55.584 403.032 59.552 403.032 64.416C403.032 69.152 403.704 72.928 405.048 75.744C406.456 78.496 408.024 80.416 409.752 81.504C411.544 82.592 413.08 83.136 414.36 83.136C415.512 83.136 416.696 82.752 417.912 81.984C419.128 81.152 420.184 80.288 421.08 79.392C421.208 79.264 421.4 79.04 421.656 78.72C421.976 78.4 422.264 78.24 422.52 78.24C422.84 78.24 423.224 78.368 423.672 78.624L431.832 83.136C432.088 83.264 432.472 83.456 432.984 83.712C433.56 83.904 433.944 84.096 434.136 84.288C434.392 84.48 434.52 84.736 434.52 85.056C434.52 85.376 434.424 85.728 434.232 86.112C432.824 88.48 430.616 90.912 427.608 93.408C424.6 95.904 420.44 97.152 415.128 97.152C410.968 97.152 406.968 95.616 403.128 92.544C399.352 89.408 396.312 85.152 394.008 79.776C391.704 74.4 390.552 68.48 390.552 62.016C390.552 55.616 391.64 49.856 393.816 44.736C396.056 39.616 398.904 35.616 402.36 32.736C405.816 29.856 409.368 28.416 413.016 28.416C417.56 28.416 421.208 29.376 423.96 31.296C426.776 33.152 428.792 34.944 430.008 36.672C430.264 37.056 430.488 37.408 430.68 37.728C430.936 38.048 431.064 38.368 431.064 38.688C431.064 39.072 430.712 39.584 430.008 40.224C427.064 42.528 424.952 44.544 423.672 46.272C423.032 47.104 422.488 47.744 422.04 48.192C421.592 48.576 421.144 48.768 420.696 48.768C420.248 48.768 419.736 48.448 419.16 47.808C417.816 46.336 416.76 45.312 415.992 44.736C415.288 44.096 414.424 43.776 413.4 43.776Z" fill="#ED960C"/>
</svg>
