<svg id="visual" viewBox="0 0 770 80" width="770" height="80" xmlns="http://www.w3.org/2000/svg" xmlns:xlink="http://www.w3.org/1999/xlink" version="1.1"><rect x="0" y="0" width="770" height="80" fill="#ed960c"></rect><path d="M0 51L18.3 50C36.7 49 73.3 47 110 45.8C146.7 44.7 183.3 44.3 220 45C256.7 45.7 293.3 47.3 330 50.7C366.7 54 403.3 59 440 61.5C476.7 64 513.3 64 550 64.2C586.7 64.3 623.3 64.7 660 64.8C696.7 65 733.3 65 751.7 65L770 65L770 0L751.7 0C733.3 0 696.7 0 660 0C623.3 0 586.7 0 550 0C513.3 0 476.7 0 440 0C403.3 0 366.7 0 330 0C293.3 0 256.7 0 220 0C183.3 0 146.7 0 110 0C73.3 0 36.7 0 18.3 0L0 0Z" fill="#ed960c"></path><path d="M0 48L18.3 48.2C36.7 48.3 73.3 48.7 110 48C146.7 47.3 183.3 45.7 220 43.7C256.7 41.7 293.3 39.3 330 39.7C366.7 40 403.3 43 440 44.3C476.7 45.7 513.3 45.3 550 46.3C586.7 47.3 623.3 49.7 660 47.3C696.7 45 733.3 38 751.7 34.5L770 31L770 0L751.7 0C733.3 0 696.7 0 660 0C623.3 0 586.7 0 550 0C513.3 0 476.7 0 440 0C403.3 0 366.7 0 330 0C293.3 0 256.7 0 220 0C183.3 0 146.7 0 110 0C73.3 0 36.7 0 18.3 0L0 0Z" fill="#f28901"></path><path d="M0 41L18.3 40C36.7 39 73.3 37 110 34.5C146.7 32 183.3 29 220 27C256.7 25 293.3 24 330 26.3C366.7 28.7 403.3 34.3 440 35.2C476.7 36 513.3 32 550 29.2C586.7 26.3 623.3 24.7 660 24.5C696.7 24.3 733.3 25.7 751.7 26.3L770 27L770 0L751.7 0C733.3 0 696.7 0 660 0C623.3 0 586.7 0 550 0C513.3 0 476.7 0 440 0C403.3 0 366.7 0 330 0C293.3 0 256.7 0 220 0C183.3 0 146.7 0 110 0C73.3 0 36.7 0 18.3 0L0 0Z" fill="#f67a00"></path><path d="M0 17L18.3 19.2C36.7 21.3 73.3 25.7 110 27.8C146.7 30 183.3 30 220 30C256.7 30 293.3 30 330 29C366.7 28 403.3 26 440 26.2C476.7 26.3 513.3 28.7 550 27.7C586.7 26.7 623.3 22.3 660 19.7C696.7 17 733.3 16 751.7 15.5L770 15L770 0L751.7 0C733.3 0 696.7 0 660 0C623.3 0 586.7 0 550 0C513.3 0 476.7 0 440 0C403.3 0 366.7 0 330 0C293.3 0 256.7 0 220 0C183.3 0 146.7 0 110 0C73.3 0 36.7 0 18.3 0L0 0Z" fill="#fb6900"></path><path d="M0 14L18.3 13.7C36.7 13.3 73.3 12.7 110 11.5C146.7 10.3 183.3 8.7 220 8.3C256.7 8 293.3 9 330 8.8C366.7 8.7 403.3 7.3 440 7.8C476.7 8.3 513.3 10.7 550 10.7C586.7 10.7 623.3 8.3 660 8.8C696.7 9.3 733.3 12.7 751.7 14.3L770 16L770 0L751.7 0C733.3 0 696.7 0 660 0C623.3 0 586.7 0 550 0C513.3 0 476.7 0 440 0C403.3 0 366.7 0 330 0C293.3 0 256.7 0 220 0C183.3 0 146.7 0 110 0C73.3 0 36.7 0 18.3 0L0 0Z" fill="#ff5500"></path></svg>